<svg width="21" height="21" viewBox="0 0 21 21" fill="none" xmlns="http://www.w3.org/2000/svg">
<path fill-rule="evenodd" clip-rule="evenodd" d="M2.9617 0.719238L7.29758 6.93603L3.78539 10.4482C3.77712 10.4565 3.76867 10.4645 3.76005 10.4722C4.57253 11.738 5.54738 12.9401 6.68601 14.0787C7.82464 15.2174 9.02676 16.1922 10.2926 17.0047C10.3003 16.9961 10.3083 16.9876 10.3165 16.9794L13.8287 13.4672L20.0455 17.8031L18.3686 19.4799C17.4332 20.4153 16.0601 20.7624 14.7926 20.3837C11.4605 19.3883 8.47462 17.5644 5.83748 14.9273C3.20035 12.2901 1.37648 9.30424 0.381062 5.97216C0.0023842 4.70463 0.349415 3.33153 1.28484 2.3961L2.9617 0.719238ZM11.3535 17.6394C12.5595 18.3097 13.8203 18.8408 15.1361 19.2339C15.9811 19.4863 16.8965 19.255 17.5201 18.6314L18.1838 17.9677L13.9666 15.0264L11.3535 17.6394ZM3.12535 9.4112L5.73839 6.79816L2.79709 2.58091L2.13336 3.24463C1.50975 3.86825 1.2784 4.78365 1.53085 5.62866C1.92392 6.94445 2.45505 8.20524 3.12535 9.4112Z" fill="#F5F5F5"/>
</svg>
